<svg width="194" height="230" viewBox="0 0 194 230" fill="none" xmlns="http://www.w3.org/2000/svg">
<g clip-path="url(#clip0_49_127)">
<path d="M137.964 193.012L139.883 230C139.883 230 58.7112 152.442 48.5986 129.75C38.486 107.057 57.5215 50.9232 57.5215 50.9232L99.7566 74.2128L137.964 193.012Z" fill="#9F616A"/>
<path d="M13.5019 35.3967L1.0099 36.591C1.0099 36.591 -5.53358 50.9231 14.6917 52.1175L13.5019 35.3967Z" fill="#9F616A"/>
<path d="M13.5019 57.492L1.0099 58.6864C1.0099 58.6864 -5.53358 73.0184 14.6917 74.2128L13.5019 57.492Z" fill="#9F616A"/>
<path d="M13.5019 81.3788L1.0099 82.5732C1.0099 82.5732 -5.53358 96.9053 14.6917 98.0996L13.5019 81.3788Z" fill="#9F616A"/>
<path d="M17.0713 105.266L4.57924 106.46C4.57924 106.46 -1.96424 120.792 18.261 121.986L17.0713 105.266Z" fill="#9F616A"/>
<path d="M7.42041 41.1544H8.36828V15.0871C8.36828 13.1058 8.757 11.144 9.51226 9.31351C10.2675 7.48306 11.3745 5.81987 12.7701 4.41891C14.1656 3.01794 15.8224 1.90664 17.6457 1.14844C19.4691 0.390244 21.4234 1.51796e-06 23.397 0H78.4105C80.3841 -4.04778e-06 82.3383 0.390232 84.1617 1.14842C85.9851 1.90662 87.6418 3.01792 89.0374 4.41888C90.4329 5.81984 91.5399 7.48302 92.2952 9.31346C93.0505 11.1439 93.4392 13.1058 93.4392 15.087V158.095C93.4392 160.076 93.0505 162.038 92.2952 163.868C91.5399 165.699 90.4329 167.362 89.0374 168.763C87.6419 170.164 85.9851 171.275 84.1617 172.033C82.3384 172.791 80.3841 173.182 78.4105 173.182H23.397C19.4112 173.182 15.5886 171.592 12.7701 168.763C9.95169 165.933 8.3683 162.096 8.36829 158.095V59.7096H7.42041V41.1544Z" fill="#3F3D56"/>
<path d="M22.7907 3.92514H29.9717C29.6415 4.73792 29.5154 5.61976 29.6047 6.49297C29.6939 7.36618 29.9957 8.20397 30.4834 8.93252C30.9711 9.66108 31.6298 10.258 32.4015 10.6708C33.1732 11.0836 34.0342 11.2996 34.9086 11.2996H66.4251C67.2995 11.2996 68.1605 11.0836 68.9322 10.6708C69.7038 10.2581 70.3626 9.66109 70.8503 8.93253C71.338 8.20397 71.6398 7.36619 71.729 6.49297C71.8182 5.61976 71.6922 4.73791 71.3619 3.92513H78.0691C81.0457 3.92512 83.9004 5.11216 86.0051 7.2251C88.1099 9.33804 89.2924 12.2038 89.2924 15.192V157.99C89.2924 159.469 89.0021 160.934 88.438 162.301C87.874 163.668 87.0473 164.91 86.0051 165.956C84.963 167.003 83.7257 167.833 82.3641 168.399C81.0024 168.965 79.543 169.256 78.0691 169.256H22.7907C21.3168 169.256 19.8574 168.965 18.4957 168.399C17.134 167.833 15.8968 167.003 14.8546 165.956C13.8124 164.91 12.9857 163.668 12.4217 162.301C11.8577 160.934 11.5674 159.469 11.5674 157.99V15.192C11.5674 13.7124 11.8577 12.2473 12.4217 10.8803C12.9857 9.51338 13.8124 8.27134 14.8546 7.22511C15.8968 6.17889 17.134 5.34898 18.4957 4.78277C19.8574 4.21656 21.3168 3.92513 22.7907 3.92514Z" fill="white"/>
<path d="M62.273 43.9299H38.5864V49.6679H62.273V43.9299Z" fill="#5D5FEF"/>
<path d="M63.4004 68.5858H37.4585V74.3238H63.4004V68.5858Z" fill="#E5E5E5"/>
<path d="M79.3795 80.9118H21.4795V86.6498H79.3795V80.9118Z" fill="#E5E5E5"/>
<path d="M79.3795 93.2377H21.4795V98.9757H79.3795V93.2377Z" fill="#E5E5E5"/>
<path d="M194 212.276L127.418 136.02L125.038 87.052L100.054 45.25L92.9158 27.3349C92.9158 27.3349 76.2597 29.1264 89.9415 63.1651L95.5927 81.3788C90.4986 92.3933 87.8595 104.391 87.8595 116.535V158.271C87.8595 168.099 134.511 221.63 139.941 229.807L194 212.276Z" fill="#9F616A"/>
<path opacity="0.2" d="M94.8746 48.7922L99.8414 46.3417L99.6722 45.9957L95.083 48.2601L88.1554 30.0268L87.7969 30.1643L94.8746 48.7922Z" fill="black"/>
<path opacity="0.2" d="M1.07653 36.4097L0.943848 36.7713L8.3017 39.4922L8.43438 39.1306L1.07653 36.4097Z" fill="black"/>
<path opacity="0.2" d="M1.07653 58.7568L0.943848 59.1184L8.3017 61.8393L8.43438 61.4777L1.07653 58.7568Z" fill="black"/>
<path opacity="0.2" d="M1.07653 82.6451L0.943848 83.0067L8.3017 85.7276L8.43438 85.366L1.07653 82.6451Z" fill="black"/>
<path opacity="0.2" d="M4.93118 106.54L4.76514 106.888L8.34737 108.614L8.51341 108.266L4.93118 106.54Z" fill="black"/>
<path d="M50.459 148.495C59.6225 148.495 67.0509 141.037 67.0509 131.838C67.0509 122.639 59.6225 115.182 50.459 115.182C41.2956 115.182 33.8672 122.639 33.8672 131.838C33.8672 141.037 41.2956 148.495 50.459 148.495Z" fill="#5D5FEF"/>
<path d="M48.8778 138.87L43.9121 132.459L46.7998 130.205L49.151 133.24L57.0946 124.822L59.7509 127.348L48.8778 138.87Z" fill="white"/>
</g>
<defs>
<clipPath id="clip0_49_127">
<rect width="194" height="230" fill="white"/>
</clipPath>
</defs>
</svg>
